<svg width="37" height="31" viewBox="0 0 37 31" fill="none" xmlns="http://www.w3.org/2000/svg">
<path d="M33.5533 2.71116C32.6887 1.85164 31.6622 1.16981 30.5323 0.704623C29.4024 0.239434 28.1914 0 26.9684 0C25.7454 0 24.5343 0.239434 23.4045 0.704623C22.2746 1.16981 21.248 1.85164 20.3834 2.71116L18.5891 4.49412L16.7947 2.71116C15.0483 0.975808 12.6796 0.000899491 10.2098 0.00089951C7.73992 0.000899528 5.37124 0.975808 3.6248 2.71116C1.87836 4.4465 0.897217 6.80014 0.897217 9.25429C0.897217 11.7084 1.87836 14.0621 3.6248 15.7974L5.41915 17.5804L18.5891 30.6667L31.759 17.5804L33.5533 15.7974C34.4184 14.9383 35.1045 13.9183 35.5727 12.7956C36.0409 11.6729 36.2818 10.4695 36.2818 9.25429C36.2818 8.03904 36.0409 6.83569 35.5727 5.713C35.1045 4.59031 34.4184 3.57027 33.5533 2.71116Z" fill="url(#paint0_linear_1_115)"/>
<defs>
<linearGradient id="paint0_linear_1_115" x1="0.897217" y1="14.3111" x2="35.4335" y2="14.4889" gradientUnits="userSpaceOnUse">
<stop stop-color="#FF7070"/>
<stop offset="1" stop-color="#FF7070" stop-opacity="0.65"/>
</linearGradient>
</defs>
</svg>
